# xmcd CD database file
#
# Track frame offsets:
#	180
#	18852
#	38817
#	64767
#	84842
#	97210
#	116578
#	142330
#	155983
#	179198
#	192312
#	206177
#	219175
#
# Disc length: 3078 seconds
#
# Revision: 0
# Processed by: cddbd v1.5.2PL0 Copyright (c) Steve Scherf et al.
# Submitted via: Feurio! 1.68 - http://www.feurio.com
#
DISCID=c60c040d
DTITLE=Mr Frank Edwards - Chicken Raid
DYEAR=2004
DGENRE=blues
TTITLE0=Chicken Raid
TTITLE1=When The Saints Go Marching In
TTITLE2=Evil Woman
TTITLE3=Gone With Another Man
TTITLE4=Done Got Drunk
TTITLE5=She's Mine
TTITLE6=My Baby Quit Me
TTITLE7=My Baby Gone
TTITLE8=I Know He Shed His Blood
TTITLE9=Sweet Man Blues
TTITLE10=Three Women Blues
TTITLE11=Terraplane Blues
TTITLE12=We Got To Get Together
EXTD=tracks 1-3   Frank Edwards vocal, harp, guitar rec. 6/19/96 Atlanta 
EXTD=GA\r\ntracks 4-5   Frank Edwards vocal, harp, guitar   Mudcat guitar   
EXTD=Janet Daniel drums rec. 4/25/01 Atlanta GA\r\ntracks 6-9   Frank Edwards 
EXTD=Vocal, harp, guitar   Cool John Ferguson drums rec. 3/22/02 Hillsborough 
EXTD=NC\r\ntrack 10 Okeh Session May 28, 1941\r\ntrack 11 rec. in Memphis 
EXTD=1939\r\ntrack 12, 13 unknown
EXTT0=
EXTT1=
EXTT2=
EXTT3=
EXTT4=
EXTT5=
EXTT6=
EXTT7=
EXTT8=
EXTT9=
EXTT10=
EXTT11=
EXTT12=
PLAYORDER=
